# Made in Blockbench 5.0.1
mtllib materials.mtl

o rightSpike
v 0.2847527484865401 0.9138572934653539 0.479225785085732
v 0.20088686074161213 1.1584182187871472 0.12629134828690758
v 0.2795350569681767 0.7592231036036949 0.3733140623113025
v 0.1956691692232488 1.0037840289254882 0.020379625512478183
v 0.10080394932583878 0.8977638588695855 0.5117848183982814
v 0.016938061580910824 1.1423247841913788 0.15885038159945708
v 0.09558625780747546 0.7431296690079265 0.4058730956238519
v 0.011720370062547503 0.9876905943297198 0.052938658825027574
vt 0.2421875 0.4921875
vt 0.2421875 0.515625
vt 0.1875 0.515625
vt 0.1875 0.4921875
vt 0.3203125 0.4921875
vt 0.3203125 0.515625
vt 0.265625 0.515625
vt 0.265625 0.4921875
vt 0.2421875 0.5703125
vt 0.2421875 0.515625
vt 0.265625 0.515625
vt 0.265625 0.5703125
vt 0.265625 0.515625
vt 0.265625 0.5703125
vt 0.2890625 0.5703125
vt 0.2890625 0.515625
vt 0.34375 0.4921875
vt 0.34375 0.515625
vt 0.3203125 0.515625
vt 0.3203125 0.4921875
vt 0.265625 0.4921875
vt 0.265625 0.515625
vt 0.2421875 0.515625
vt 0.2421875 0.4921875
vn 0.981060262190407 0.08583165117743133 -0.17364817766693036
vn -0.981060262190407 -0.08583165117743133 0.17364817766693036
vn 0.027827688097937772 0.8247156792621815 0.5648625214636235
vn -0.027827688097937772 -0.8247156792621815 -0.5648625214636235
vn 0.1916934577026925 -0.5589964007355275 0.8067072841115988
vn -0.1916934577026925 0.5589964007355275 -0.8067072841115988
usemtl m_95a71441-cf5d-dbf6-fb33-8c7d325a935c
f 4/1/1 2/2/1 1/3/1 3/4/1
f 7/5/2 5/6/2 6/7/2 8/8/2
f 1/9/3 2/10/3 6/11/3 5/12/3
f 4/13/4 3/14/4 7/15/4 8/16/4
f 3/17/5 1/18/5 5/19/5 7/20/5
f 8/21/6 6/22/6 2/23/6 4/24/6
o leftSpike
v -0.10080394932583878 0.8977638588695855 0.5117848183982814
v -0.016938061580910824 1.1423247841913788 0.15885038159945708
v -0.09558625780747546 0.7431296690079265 0.4058730956238519
v -0.011720370062547503 0.9876905943297198 0.052938658825027574
v -0.2847527484865401 0.9138572934653539 0.479225785085732
v -0.20088686074161213 1.1584182187871472 0.12629134828690758
v -0.2795350569681767 0.7592231036036949 0.3733140623113025
v -0.1956691692232488 1.0037840289254882 0.020379625512478183
vt 0.265625 0.4921875
vt 0.265625 0.515625
vt 0.3203125 0.515625
vt 0.3203125 0.4921875
vt 0.1875 0.4921875
vt 0.1875 0.515625
vt 0.2421875 0.515625
vt 0.2421875 0.4921875
vt 0.265625 0.5703125
vt 0.265625 0.515625
vt 0.2421875 0.515625
vt 0.2421875 0.5703125
vt 0.2890625 0.515625
vt 0.2890625 0.5703125
vt 0.265625 0.5703125
vt 0.265625 0.515625
vt 0.3203125 0.4921875
vt 0.3203125 0.515625
vt 0.34375 0.515625
vt 0.34375 0.4921875
vt 0.2421875 0.4921875
vt 0.2421875 0.515625
vt 0.265625 0.515625
vt 0.265625 0.4921875
vn 0.981060262190407 -0.08583165117743133 0.17364817766693036
vn -0.981060262190407 0.08583165117743133 -0.17364817766693036
vn -0.027827688097937772 0.8247156792621815 0.5648625214636235
vn 0.027827688097937772 -0.8247156792621815 -0.5648625214636235
vn -0.1916934577026925 -0.5589964007355275 0.8067072841115988
vn 0.1916934577026925 0.5589964007355275 -0.8067072841115988
usemtl m_95a71441-cf5d-dbf6-fb33-8c7d325a935c
f 12/25/7 10/26/7 9/27/7 11/28/7
f 15/29/8 13/30/8 14/31/8 16/32/8
f 9/33/9 10/34/9 14/35/9 13/36/9
f 12/37/10 11/38/10 15/39/10 16/40/10
f 11/41/11 9/42/11 13/43/11 15/44/11
f 16/45/12 14/46/12 10/47/12 12/48/12
o leftHand
v -0.125 0.5625 0.09375
v -0.125 0.5625 -0.09375
v -0.125 0.375 0.09375
v -0.125 0.375 -0.09375
v -0.3125 0.5625 0.09375
v -0.3125 0.5625 -0.09375
v -0.3125 0.375 0.09375
v -0.3125 0.375 -0.09375
vt 0.40625 0.5078125
vt 0.40625 0.5390625
vt 0.4375 0.5390625
vt 0.4375 0.5078125
vt 0.34375 0.5078125
vt 0.34375 0.5390625
vt 0.375 0.5390625
vt 0.375 0.5078125
vt 0.40625 0.5703125
vt 0.40625 0.5390625
vt 0.375 0.5390625
vt 0.375 0.5703125
vt 0.4375 0.5390625
vt 0.4375 0.5703125
vt 0.40625 0.5703125
vt 0.40625 0.5390625
vt 0.4375 0.5078125
vt 0.4375 0.5390625
vt 0.46875 0.5390625
vt 0.46875 0.5078125
vt 0.375 0.5078125
vt 0.375 0.5390625
vt 0.40625 0.5390625
vt 0.40625 0.5078125
vn 1 0 0
vn -1 0 0
vn 0 1 0
vn 0 -1 0
vn 0 0 1
vn 0 0 -1
usemtl m_95a71441-cf5d-dbf6-fb33-8c7d325a935c
f 20/49/13 18/50/13 17/51/13 19/52/13
f 23/53/14 21/54/14 22/55/14 24/56/14
f 17/57/15 18/58/15 22/59/15 21/60/15
f 20/61/16 19/62/16 23/63/16 24/64/16
f 19/65/17 17/66/17 21/67/17 23/68/17
f 24/69/18 22/70/18 18/71/18 20/72/18
o leftArm2
v -0.1875 0.875 0.03125
v -0.1875 0.875 -0.03125
v -0.1875 0.6875 0.03125
v -0.1875 0.6875 -0.03125
v -0.25 0.875 0.03125
v -0.25 0.875 -0.03125
v -0.25 0.6875 0.03125
v -0.25 0.6875 -0.03125
vt 0.265625 0.5703125
vt 0.265625 0.59375
vt 0.2734375 0.59375
vt 0.2734375 0.5703125
vt 0.25 0.5703125
vt 0.25 0.59375
vt 0.2578125 0.59375
vt 0.2578125 0.5703125
vt 0.265625 0.6015625
vt 0.265625 0.59375
vt 0.2578125 0.59375
vt 0.2578125 0.6015625
vt 0.2734375 0.59375
vt 0.2734375 0.6015625
vt 0.265625 0.6015625
vt 0.265625 0.59375
vt 0.2734375 0.5703125
vt 0.2734375 0.59375
vt 0.28125 0.59375
vt 0.28125 0.5703125
vt 0.2578125 0.5703125
vt 0.2578125 0.59375
vt 0.265625 0.59375
vt 0.265625 0.5703125
vn 1 0 0
vn -1 0 0
vn 0 1 0
vn 0 -1 0
vn 0 0 1
vn 0 0 -1
usemtl m_95a71441-cf5d-dbf6-fb33-8c7d325a935c
f 28/73/19 26/74/19 25/75/19 27/76/19
f 31/77/20 29/78/20 30/79/20 32/80/20
f 25/81/21 26/82/21 30/83/21 29/84/21
f 28/85/22 27/86/22 31/87/22 32/88/22
f 27/89/23 25/90/23 29/91/23 31/92/23
f 32/93/24 30/94/24 26/95/24 28/96/24
o leftArm2
v -0.10625 0.70625 0.1125
v -0.10625 0.70625 -0.1125
v -0.10625 0.54375 0.1125
v -0.10625 0.54375 -0.1125
v -0.33125 0.70625 0.1125
v -0.33125 0.70625 -0.1125
v -0.33125 0.54375 0.1125
v -0.33125 0.54375 -0.1125
vt 0.5 0.84375
vt 0.5 0.8671875
vt 0.53125 0.8671875
vt 0.53125 0.84375
vt 0.4375 0.84375
vt 0.4375 0.8671875
vt 0.46875 0.8671875
vt 0.46875 0.84375
vt 0.5 0.8984375
vt 0.5 0.8671875
vt 0.46875 0.8671875
vt 0.46875 0.8984375
vt 0.53125 0.8671875
vt 0.53125 0.8984375
vt 0.5 0.8984375
vt 0.5 0.8671875
vt 0.53125 0.84375
vt 0.53125 0.8671875
vt 0.5625 0.8671875
vt 0.5625 0.84375
vt 0.46875 0.84375
vt 0.46875 0.8671875
vt 0.5 0.8671875
vt 0.5 0.84375
vn 1 0 0
vn -1 0 0
vn 0 1 0
vn 0 -1 0
vn 0 0 1
vn 0 0 -1
usemtl m_95a71441-cf5d-dbf6-fb33-8c7d325a935c
f 36/97/25 34/98/25 33/99/25 35/100/25
f 39/101/26 37/102/26 38/103/26 40/104/26
f 33/105/27 34/106/27 38/107/27 37/108/27
f 36/109/28 35/110/28 39/111/28 40/112/28
f 35/113/29 33/114/29 37/115/29 39/116/29
f 40/117/30 38/118/30 34/119/30 36/120/30
o leftArm
v -0.1875 1.0625 0.03125
v -0.1875 1.0625 -0.03125
v -0.1875 0.875 0.03125
v -0.1875 0.875 -0.03125
v -0.25 1.0625 0.03125
v -0.25 1.0625 -0.03125
v -0.25 0.875 0.03125
v -0.25 0.875 -0.03125
vt 0.265625 0.6015625
vt 0.265625 0.625
vt 0.2734375 0.625
vt 0.2734375 0.6015625
vt 0.25 0.6015625
vt 0.25 0.625
vt 0.2578125 0.625
vt 0.2578125 0.6015625
vt 0.265625 0.6328125
vt 0.265625 0.625
vt 0.2578125 0.625
vt 0.2578125 0.6328125
vt 0.2734375 0.625
vt 0.2734375 0.6328125
vt 0.265625 0.6328125
vt 0.265625 0.625
vt 0.2734375 0.6015625
vt 0.2734375 0.625
vt 0.28125 0.625
vt 0.28125 0.6015625
vt 0.2578125 0.6015625
vt 0.2578125 0.625
vt 0.265625 0.625
vt 0.265625 0.6015625
vn 1 0 0
vn -1 0 0
vn 0 1 0
vn 0 -1 0
vn 0 0 1
vn 0 0 -1
usemtl m_95a71441-cf5d-dbf6-fb33-8c7d325a935c
f 44/121/31 42/122/31 41/123/31 43/124/31
f 47/125/32 45/126/32 46/127/32 48/128/32
f 41/129/33 42/130/33 46/131/33 45/132/33
f 44/133/34 43/134/34 47/135/34 48/136/34
f 43/137/35 41/138/35 45/139/35 47/140/35
f 48/141/36 46/142/36 42/143/36 44/144/36
o rightHand
v 0.3125 0.5625 0.09375
v 0.3125 0.5625 -0.09375
v 0.3125 0.375 0.09375
v 0.3125 0.375 -0.09375
v 0.125 0.5625 0.09375
v 0.125 0.5625 -0.09375
v 0.125 0.375 0.09375
v 0.125 0.375 -0.09375
vt 0.375 0.5078125
vt 0.375 0.5390625
vt 0.34375 0.5390625
vt 0.34375 0.5078125
vt 0.4375 0.5078125
vt 0.4375 0.5390625
vt 0.40625 0.5390625
vt 0.40625 0.5078125
vt 0.375 0.5703125
vt 0.375 0.5390625
vt 0.40625 0.5390625
vt 0.40625 0.5703125
vt 0.40625 0.5390625
vt 0.40625 0.5703125
vt 0.4375 0.5703125
vt 0.4375 0.5390625
vt 0.46875 0.5078125
vt 0.46875 0.5390625
vt 0.4375 0.5390625
vt 0.4375 0.5078125
vt 0.40625 0.5078125
vt 0.40625 0.5390625
vt 0.375 0.5390625
vt 0.375 0.5078125
vn 1 0 0
vn -1 0 0
vn 0 1 0
vn 0 -1 0
vn 0 0 1
vn 0 0 -1
usemtl m_95a71441-cf5d-dbf6-fb33-8c7d325a935c
f 52/145/37 50/146/37 49/147/37 51/148/37
f 55/149/38 53/150/38 54/151/38 56/152/38
f 49/153/39 50/154/39 54/155/39 53/156/39
f 52/157/40 51/158/40 55/159/40 56/160/40
f 51/161/41 49/162/41 53/163/41 55/164/41
f 56/165/42 54/166/42 50/167/42 52/168/42
o rightArm2
v 0.25 0.875 0.03125
v 0.25 0.875 -0.03125
v 0.25 0.6875 0.03125
v 0.25 0.6875 -0.03125
v 0.1875 0.875 0.03125
v 0.1875 0.875 -0.03125
v 0.1875 0.6875 0.03125
v 0.1875 0.6875 -0.03125
vt 0.2578125 0.5703125
vt 0.2578125 0.59375
vt 0.25 0.59375
vt 0.25 0.5703125
vt 0.2734375 0.5703125
vt 0.2734375 0.59375
vt 0.265625 0.59375
vt 0.265625 0.5703125
vt 0.2578125 0.6015625
vt 0.2578125 0.59375
vt 0.265625 0.59375
vt 0.265625 0.6015625
vt 0.265625 0.59375
vt 0.265625 0.6015625
vt 0.2734375 0.6015625
vt 0.2734375 0.59375
vt 0.28125 0.5703125
vt 0.28125 0.59375
vt 0.2734375 0.59375
vt 0.2734375 0.5703125
vt 0.265625 0.5703125
vt 0.265625 0.59375
vt 0.2578125 0.59375
vt 0.2578125 0.5703125
vn 1 0 0
vn -1 0 0
vn 0 1 0
vn 0 -1 0
vn 0 0 1
vn 0 0 -1
usemtl m_95a71441-cf5d-dbf6-fb33-8c7d325a935c
f 60/169/43 58/170/43 57/171/43 59/172/43
f 63/173/44 61/174/44 62/175/44 64/176/44
f 57/177/45 58/178/45 62/179/45 61/180/45
f 60/181/46 59/182/46 63/183/46 64/184/46
f 59/185/47 57/186/47 61/187/47 63/188/47
f 64/189/48 62/190/48 58/191/48 60/192/48
o rightArm2
v 0.33125 0.70625 0.1125
v 0.33125 0.70625 -0.1125
v 0.33125 0.54375 0.1125
v 0.33125 0.54375 -0.1125
v 0.10625 0.70625 0.1125
v 0.10625 0.70625 -0.1125
v 0.10625 0.54375 0.1125
v 0.10625 0.54375 -0.1125
vt 0.46875 0.84375
vt 0.46875 0.8671875
vt 0.4375 0.8671875
vt 0.4375 0.84375
vt 0.53125 0.84375
vt 0.53125 0.8671875
vt 0.5 0.8671875
vt 0.5 0.84375
vt 0.46875 0.8984375
vt 0.46875 0.8671875
vt 0.5 0.8671875
vt 0.5 0.8984375
vt 0.5 0.8671875
vt 0.5 0.8984375
vt 0.53125 0.8984375
vt 0.53125 0.8671875
vt 0.5625 0.84375
vt 0.5625 0.8671875
vt 0.53125 0.8671875
vt 0.53125 0.84375
vt 0.5 0.84375
vt 0.5 0.8671875
vt 0.46875 0.8671875
vt 0.46875 0.84375
vn 1 0 0
vn -1 0 0
vn 0 1 0
vn 0 -1 0
vn 0 0 1
vn 0 0 -1
usemtl m_95a71441-cf5d-dbf6-fb33-8c7d325a935c
f 68/193/49 66/194/49 65/195/49 67/196/49
f 71/197/50 69/198/50 70/199/50 72/200/50
f 65/201/51 66/202/51 70/203/51 69/204/51
f 68/205/52 67/206/52 71/207/52 72/208/52
f 67/209/53 65/210/53 69/211/53 71/212/53
f 72/213/54 70/214/54 66/215/54 68/216/54
o rightArm
v 0.25 1.0625 0.03125
v 0.25 1.0625 -0.03125
v 0.25 0.875 0.03125
v 0.25 0.875 -0.03125
v 0.1875 1.0625 0.03125
v 0.1875 1.0625 -0.03125
v 0.1875 0.875 0.03125
v 0.1875 0.875 -0.03125
vt 0.2578125 0.6015625
vt 0.2578125 0.625
vt 0.25 0.625
vt 0.25 0.6015625
vt 0.2734375 0.6015625
vt 0.2734375 0.625
vt 0.265625 0.625
vt 0.265625 0.6015625
vt 0.2578125 0.6328125
vt 0.2578125 0.625
vt 0.265625 0.625
vt 0.265625 0.6328125
vt 0.265625 0.625
vt 0.265625 0.6328125
vt 0.2734375 0.6328125
vt 0.2734375 0.625
vt 0.28125 0.6015625
vt 0.28125 0.625
vt 0.2734375 0.625
vt 0.2734375 0.6015625
vt 0.265625 0.6015625
vt 0.265625 0.625
vt 0.2578125 0.625
vt 0.2578125 0.6015625
vn 1 0 0
vn -1 0 0
vn 0 1 0
vn 0 -1 0
vn 0 0 1
vn 0 0 -1
usemtl m_95a71441-cf5d-dbf6-fb33-8c7d325a935c
f 76/217/55 74/218/55 73/219/55 75/220/55
f 79/221/56 77/222/56 78/223/56 80/224/56
f 73/225/57 74/226/57 78/227/57 77/228/57
f 76/229/58 75/230/58 79/231/58 80/232/58
f 75/233/59 73/234/59 77/235/59 79/236/59
f 80/237/60 78/238/60 74/239/60 76/240/60
o tail
v 0.03125 0.8724989762351196 0.3756119966217451
v 0.03125 0.757061822926361 0.15385928832718965
v 0.03125 0.8170607991614807 0.40447128494893475
v 0.03125 0.7016236458527223 0.1827185766543793
v -0.03125 0.8724989762351196 0.3756119966217451
v -0.03125 0.757061822926361 0.15385928832718965
v -0.03125 0.8170607991614807 0.40447128494893475
v -0.03125 0.7016236458527223 0.1827185766543793
vt 0.296875 0.453125
vt 0.296875 0.4609375
vt 0.265625 0.4609375
vt 0.265625 0.453125
vt 0.3359375 0.453125
vt 0.3359375 0.4609375
vt 0.3046875 0.4609375
vt 0.3046875 0.453125
vt 0.296875 0.4921875
vt 0.296875 0.4609375
vt 0.3046875 0.4609375
vt 0.3046875 0.4921875
vt 0.3046875 0.4609375
vt 0.3046875 0.4921875
vt 0.3125 0.4921875
vt 0.3125 0.4609375
vt 0.34375 0.453125
vt 0.34375 0.4609375
vt 0.3359375 0.4609375
vt 0.3359375 0.453125
vt 0.3046875 0.453125
vt 0.3046875 0.4609375
vt 0.296875 0.4609375
vt 0.296875 0.453125
vn 1 0 0
vn -1 0 0
vn 0 0.8870108331782217 -0.4617486132350339
vn 0 -0.8870108331782217 0.4617486132350339
vn 0 0.4617486132350339 0.8870108331782217
vn 0 -0.4617486132350339 -0.8870108331782217
usemtl m_95a71441-cf5d-dbf6-fb33-8c7d325a935c
f 84/241/61 82/242/61 81/243/61 83/244/61
f 87/245/62 85/246/62 86/247/62 88/248/62
f 81/249/63 82/250/63 86/251/63 85/252/63
f 84/253/64 83/254/64 87/255/64 88/256/64
f 83/257/65 81/258/65 85/259/65 87/260/65
f 88/261/66 86/262/66 82/263/66 84/264/66
o mainBody
v 0.1875 1.0625 0.1875
v 0.1875 1.0625 -0.1875
v 0.1875 0.6875 0.1875
v 0.1875 0.6875 -0.1875
v -0.1875 1.0625 0.1875
v -0.1875 1.0625 -0.1875
v -0.1875 0.6875 0.1875
v -0.1875 0.6875 -0.1875
vt 0.046875 0.4765625
vt 0.046875 0.5234375
vt 0 0.5234375
vt 0 0.4765625
vt 0.140625 0.4765625
vt 0.140625 0.5234375
vt 0.09375 0.5234375
vt 0.09375 0.4765625
vt 0.046875 0.5703125
vt 0.046875 0.5234375
vt 0.09375 0.5234375
vt 0.09375 0.5703125
vt 0.09375 0.5234375
vt 0.09375 0.5703125
vt 0.140625 0.5703125
vt 0.140625 0.5234375
vt 0.1875 0.4765625
vt 0.1875 0.5234375
vt 0.140625 0.5234375
vt 0.140625 0.4765625
vt 0.09375 0.4765625
vt 0.09375 0.5234375
vt 0.046875 0.5234375
vt 0.046875 0.4765625
vn 1 0 0
vn -1 0 0
vn 0 1 0
vn 0 -1 0
vn 0 0 1
vn 0 0 -1
usemtl m_95a71441-cf5d-dbf6-fb33-8c7d325a935c
f 92/265/67 90/266/67 89/267/67 91/268/67
f 95/269/68 93/270/68 94/271/68 96/272/68
f 89/273/69 90/274/69 94/275/69 93/276/69
f 92/277/70 91/278/70 95/279/70 96/280/70
f 91/281/71 89/282/71 93/283/71 95/284/71
f 96/285/72 94/286/72 90/287/72 92/288/72
o default
v 0.3125 1.65625 0.3125
v 0.3125 1.65625 -0.3125
v 0.3125 1.03125 0.3125
v 0.3125 1.03125 -0.3125
v -0.3125 1.65625 0.3125
v -0.3125 1.65625 -0.3125
v -0.3125 1.03125 0.3125
v -0.3125 1.03125 -0.3125
vt 0.078125 0.84375
vt 0.078125 0.921875
vt 0 0.921875
vt 0 0.84375
vt 0.234375 0.84375
vt 0.234375 0.921875
vt 0.15625 0.921875
vt 0.15625 0.84375
vt 0.078125 1
vt 0.078125 0.921875
vt 0.15625 0.921875
vt 0.15625 1
vt 0.15625 0.921875
vt 0.15625 1
vt 0.234375 1
vt 0.234375 0.921875
vt 0.3125 0.84375
vt 0.3125 0.921875
vt 0.234375 0.921875
vt 0.234375 0.84375
vt 0.15625 0.84375
vt 0.15625 0.921875
vt 0.078125 0.921875
vt 0.078125 0.84375
vn 1 0 0
vn -1 0 0
vn 0 1 0
vn 0 -1 0
vn 0 0 1
vn 0 0 -1
usemtl m_95a71441-cf5d-dbf6-fb33-8c7d325a935c
f 100/289/73 98/290/73 97/291/73 99/292/73
f 103/293/74 101/294/74 102/295/74 104/296/74
f 97/297/75 98/298/75 102/299/75 101/300/75
f 100/301/76 99/302/76 103/303/76 104/304/76
f 99/305/77 97/306/77 101/307/77 103/308/77
f 104/309/78 102/310/78 98/311/78 100/312/78
o peelout
v 0.3125 1.65625 0.3125
v 0.3125 1.65625 -0.3125
v 0.3125 1.03125 0.3125
v 0.3125 1.03125 -0.3125
v -0.3125 1.65625 0.3125
v -0.3125 1.65625 -0.3125
v -0.3125 1.03125 0.3125
v -0.3125 1.03125 -0.3125
vt 0.078125 0.140625
vt 0.078125 0.21875
vt 0 0.21875
vt 0 0.140625
vt 0.234375 0.140625
vt 0.234375 0.21875
vt 0.15625 0.21875
vt 0.15625 0.140625
vt 0.078125 0.296875
vt 0.078125 0.21875
vt 0.15625 0.21875
vt 0.15625 0.296875
vt 0.15625 0.21875
vt 0.15625 0.296875
vt 0.234375 0.296875
vt 0.234375 0.21875
vt 0.3125 0.140625
vt 0.3125 0.21875
vt 0.234375 0.21875
vt 0.234375 0.140625
vt 0.15625 0.140625
vt 0.15625 0.21875
vt 0.078125 0.21875
vt 0.078125 0.140625
vn 1 0 0
vn -1 0 0
vn 0 1 0
vn 0 -1 0
vn 0 0 1
vn 0 0 -1
usemtl m_95a71441-cf5d-dbf6-fb33-8c7d325a935c
f 108/313/79 106/314/79 105/315/79 107/316/79
f 111/317/80 109/318/80 110/319/80 112/320/80
f 105/321/81 106/322/81 110/323/81 109/324/81
f 108/325/82 107/326/82 111/327/82 112/328/82
f 107/329/83 105/330/83 109/331/83 111/332/83
f 112/333/84 110/334/84 106/335/84 108/336/84
o open_eyes
v 0.3125 1.65625 0.3125
v 0.3125 1.65625 -0.3125
v 0.3125 1.03125 0.3125
v 0.3125 1.03125 -0.3125
v -0.3125 1.65625 0.3125
v -0.3125 1.65625 -0.3125
v -0.3125 1.03125 0.3125
v -0.3125 1.03125 -0.3125
vt 0.078125 0.296875
vt 0.078125 0.375
vt 0 0.375
vt 0 0.296875
vt 0.234375 0.296875
vt 0.234375 0.375
vt 0.15625 0.375
vt 0.15625 0.296875
vt 0.078125 0.453125
vt 0.078125 0.375
vt 0.15625 0.375
vt 0.15625 0.453125
vt 0.15625 0.375
vt 0.15625 0.453125
vt 0.234375 0.453125
vt 0.234375 0.375
vt 0.3125 0.296875
vt 0.3125 0.375
vt 0.234375 0.375
vt 0.234375 0.296875
vt 0.15625 0.296875
vt 0.15625 0.375
vt 0.078125 0.375
vt 0.078125 0.296875
vn 1 0 0
vn -1 0 0
vn 0 1 0
vn 0 -1 0
vn 0 0 1
vn 0 0 -1
usemtl m_95a71441-cf5d-dbf6-fb33-8c7d325a935c
f 116/337/85 114/338/85 113/339/85 115/340/85
f 119/341/86 117/342/86 118/343/86 120/344/86
f 113/345/87 114/346/87 118/347/87 117/348/87
f 116/349/88 115/350/88 119/351/88 120/352/88
f 115/353/89 113/354/89 117/355/89 119/356/89
f 120/357/90 118/358/90 114/359/90 116/360/90
o main
v 0.28125 1.625 0.28125
v 0.28125 1.625 -0.28125
v 0.28125 1.0625 0.28125
v 0.28125 1.0625 -0.28125
v -0.28125 1.625 0.28125
v -0.28125 1.625 -0.28125
v -0.28125 1.0625 0.28125
v -0.28125 1.0625 -0.28125
vt 0.3671875 0.703125
vt 0.3671875 0.7734375
vt 0.296875 0.7734375
vt 0.296875 0.703125
vt 0.5078125 0.703125
vt 0.5078125 0.7734375
vt 0.4375 0.7734375
vt 0.4375 0.703125
vt 0.3671875 0.84375
vt 0.3671875 0.7734375
vt 0.4375 0.7734375
vt 0.4375 0.84375
vt 0.4375 0.7734375
vt 0.4375 0.84375
vt 0.5078125 0.84375
vt 0.5078125 0.7734375
vt 0.578125 0.703125
vt 0.578125 0.7734375
vt 0.5078125 0.7734375
vt 0.5078125 0.703125
vt 0.4375 0.703125
vt 0.4375 0.7734375
vt 0.3671875 0.7734375
vt 0.3671875 0.703125
vn 1 0 0
vn -1 0 0
vn 0 1 0
vn 0 -1 0
vn 0 0 1
vn 0 0 -1
usemtl m_95a71441-cf5d-dbf6-fb33-8c7d325a935c
f 124/361/91 122/362/91 121/363/91 123/364/91
f 127/365/92 125/366/92 126/367/92 128/368/92
f 121/369/93 122/370/93 126/371/93 125/372/93
f 124/373/94 123/374/94 127/375/94 128/376/94
f 123/377/95 121/378/95 125/379/95 127/380/95
f 128/381/96 126/382/96 122/383/96 124/384/96
o main
v 0.34375 1.3125 -0.03125
v 0.34375 1.3125 -0.28125
v 0.34375 1.125 -0.03125
v 0.34375 1.125 -0.28125
v 0.28125 1.3125 -0.03125
v 0.28125 1.3125 -0.28125
v 0.28125 1.125 -0.03125
v 0.28125 1.125 -0.28125
vt 0.375 0.453125
vt 0.375 0.4765625
vt 0.34375 0.4765625
vt 0.34375 0.453125
vt 0.4140625 0.453125
vt 0.4140625 0.4765625
vt 0.3828125 0.4765625
vt 0.3828125 0.453125
vt 0.375 0.5078125
vt 0.375 0.4765625
vt 0.3828125 0.4765625
vt 0.3828125 0.5078125
vt 0.3828125 0.4765625
vt 0.3828125 0.5078125
vt 0.390625 0.5078125
vt 0.390625 0.4765625
vt 0.421875 0.453125
vt 0.421875 0.4765625
vt 0.4140625 0.4765625
vt 0.4140625 0.453125
vt 0.3828125 0.453125
vt 0.3828125 0.4765625
vt 0.375 0.4765625
vt 0.375 0.453125
vn 1 0 0
vn -1 0 0
vn 0 1 0
vn 0 -1 0
vn 0 0 1
vn 0 0 -1
usemtl m_95a71441-cf5d-dbf6-fb33-8c7d325a935c
f 132/385/97 130/386/97 129/387/97 131/388/97
f 135/389/98 133/390/98 134/391/98 136/392/98
f 129/393/99 130/394/99 134/395/99 133/396/99
f 132/397/100 131/398/100 135/399/100 136/400/100
f 131/401/101 129/402/101 133/403/101 135/404/101
f 136/405/102 134/406/102 130/407/102 132/408/102
o main
v -0.28125 1.3125 -0.03125
v -0.28125 1.3125 -0.28125
v -0.28125 1.125 -0.03125
v -0.28125 1.125 -0.28125
v -0.34375 1.3125 -0.03125
v -0.34375 1.3125 -0.28125
v -0.34375 1.125 -0.03125
v -0.34375 1.125 -0.28125
vt 0.3828125 0.453125
vt 0.3828125 0.4765625
vt 0.4140625 0.4765625
vt 0.4140625 0.453125
vt 0.34375 0.453125
vt 0.34375 0.4765625
vt 0.375 0.4765625
vt 0.375 0.453125
vt 0.3828125 0.5078125
vt 0.3828125 0.4765625
vt 0.375 0.4765625
vt 0.375 0.5078125
vt 0.390625 0.4765625
vt 0.390625 0.5078125
vt 0.3828125 0.5078125
vt 0.3828125 0.4765625
vt 0.4140625 0.453125
vt 0.4140625 0.4765625
vt 0.421875 0.4765625
vt 0.421875 0.453125
vt 0.375 0.453125
vt 0.375 0.4765625
vt 0.3828125 0.4765625
vt 0.3828125 0.453125
vn 1 0 0
vn -1 0 0
vn 0 1 0
vn 0 -1 0
vn 0 0 1
vn 0 0 -1
usemtl m_95a71441-cf5d-dbf6-fb33-8c7d325a935c
f 140/409/103 138/410/103 137/411/103 139/412/103
f 143/413/104 141/414/104 142/415/104 144/416/104
f 137/417/105 138/418/105 142/419/105 141/420/105
f 140/421/106 139/422/106 143/423/106 144/424/106
f 139/425/107 137/426/107 141/427/107 143/428/107
f 144/429/108 142/430/108 138/431/108 140/432/108
o nose
v 0.03125 1.21875 -0.21875
v 0.03125 1.21875 -0.40625
v 0.03125 1.15625 -0.21875
v 0.03125 1.15625 -0.40625
v -0.03125 1.21875 -0.21875
v -0.03125 1.21875 -0.40625
v -0.03125 1.15625 -0.21875
v -0.03125 1.15625 -0.40625
vt 0.5390625 0.9375
vt 0.5390625 0.9453125
vt 0.515625 0.9453125
vt 0.515625 0.9375
vt 0.5703125 0.9375
vt 0.5703125 0.9453125
vt 0.546875 0.9453125
vt 0.546875 0.9375
vt 0.5390625 0.96875
vt 0.5390625 0.9453125
vt 0.546875 0.9453125
vt 0.546875 0.96875
vt 0.546875 0.9453125
vt 0.546875 0.96875
vt 0.5546875 0.96875
vt 0.5546875 0.9453125
vt 0.578125 0.9375
vt 0.578125 0.9453125
vt 0.5703125 0.9453125
vt 0.5703125 0.9375
vt 0.546875 0.9375
vt 0.546875 0.9453125
vt 0.5390625 0.9453125
vt 0.5390625 0.9375
vn 1 0 0
vn -1 0 0
vn 0 1 0
vn 0 -1 0
vn 0 0 1
vn 0 0 -1
usemtl m_95a71441-cf5d-dbf6-fb33-8c7d325a935c
f 148/433/109 146/434/109 145/435/109 147/436/109
f 151/437/110 149/438/110 150/439/110 152/440/110
f 145/441/111 146/442/111 150/443/111 149/444/111
f 148/445/112 147/446/112 151/447/112 152/448/112
f 147/449/113 145/450/113 149/451/113 151/452/113
f 152/453/114 150/454/114 146/455/114 148/456/114
o eye_left
v -0.125 1.40625 -0.234375
v -0.125 1.40625 -0.296875
v -0.125 1.21875 -0.234375
v -0.125 1.21875 -0.296875
v -0.1875 1.40625 -0.234375
v -0.1875 1.40625 -0.296875
v -0.1875 1.21875 -0.234375
v -0.1875 1.21875 -0.296875
vt 0.4375 0.4765625
vt 0.4375 0.5
vt 0.4453125 0.5
vt 0.4453125 0.4765625
vt 0.421875 0.4765625
vt 0.421875 0.5
vt 0.4296875 0.5
vt 0.4296875 0.4765625
vt 0.4375 0.5078125
vt 0.4375 0.5
vt 0.4296875 0.5
vt 0.4296875 0.5078125
vt 0.4453125 0.5
vt 0.4453125 0.5078125
vt 0.4375 0.5078125
vt 0.4375 0.5
vt 0.4453125 0.4765625
vt 0.4453125 0.5
vt 0.453125 0.5
vt 0.453125 0.4765625
vt 0.4296875 0.4765625
vt 0.4296875 0.5
vt 0.4375 0.5
vt 0.4375 0.4765625
vn 1 0 0
vn -1 0 0
vn 0 1 0
vn 0 -1 0
vn 0 0 1
vn 0 0 -1
usemtl m_95a71441-cf5d-dbf6-fb33-8c7d325a935c
f 156/457/115 154/458/115 153/459/115 155/460/115
f 159/461/116 157/462/116 158/463/116 160/464/116
f 153/465/117 154/466/117 158/467/117 157/468/117
f 156/469/118 155/470/118 159/471/118 160/472/118
f 155/473/119 153/474/119 157/475/119 159/476/119
f 160/477/120 158/478/120 154/479/120 156/480/120
o eye_right
v 0.1875 1.40625 -0.234375
v 0.1875 1.40625 -0.296875
v 0.1875 1.21875 -0.234375
v 0.1875 1.21875 -0.296875
v 0.125 1.40625 -0.234375
v 0.125 1.40625 -0.296875
v 0.125 1.21875 -0.234375
v 0.125 1.21875 -0.296875
vt 0.4296875 0.4765625
vt 0.4296875 0.5
vt 0.421875 0.5
vt 0.421875 0.4765625
vt 0.4453125 0.4765625
vt 0.4453125 0.5
vt 0.4375 0.5
vt 0.4375 0.4765625
vt 0.4296875 0.5078125
vt 0.4296875 0.5
vt 0.4375 0.5
vt 0.4375 0.5078125
vt 0.4375 0.5
vt 0.4375 0.5078125
vt 0.4453125 0.5078125
vt 0.4453125 0.5
vt 0.453125 0.4765625
vt 0.453125 0.5
vt 0.4453125 0.5
vt 0.4453125 0.4765625
vt 0.4375 0.4765625
vt 0.4375 0.5
vt 0.4296875 0.5
vt 0.4296875 0.4765625
vn 1 0 0
vn -1 0 0
vn 0 1 0
vn 0 -1 0
vn 0 0 1
vn 0 0 -1
usemtl m_95a71441-cf5d-dbf6-fb33-8c7d325a935c
f 164/481/121 162/482/121 161/483/121 163/484/121
f 167/485/122 165/486/122 166/487/122 168/488/122
f 161/489/123 162/490/123 166/491/123 165/492/123
f 164/493/124 163/494/124 167/495/124 168/496/124
f 163/497/125 161/498/125 165/499/125 167/500/125
f 168/501/126 166/502/126 162/503/126 164/504/126
o ear_right
v 0.19675314356845441 1.8294774123458661 0
v 0.19675314356845441 1.8294774123458661 -0.125
v 0.36998055591432055 1.7577242687774117 0
v 0.36998055591432055 1.7577242687774117 -0.125
v 0.125 1.65625 0
v 0.125 1.65625 -0.125
v 0.29822741234586614 1.5844968564315456 0
v 0.29822741234586614 1.5844968564315456 -0.125
vt 0.203125 0.453125
vt 0.203125 0.4765625
vt 0.1875 0.4765625
vt 0.1875 0.453125
vt 0.2421875 0.453125
vt 0.2421875 0.4765625
vt 0.2265625 0.4765625
vt 0.2265625 0.453125
vt 0.203125 0.4921875
vt 0.203125 0.4765625
vt 0.2265625 0.4765625
vt 0.2265625 0.4921875
vt 0.2265625 0.4765625
vt 0.2265625 0.4921875
vt 0.25 0.4921875
vt 0.25 0.4765625
vt 0.265625 0.453125
vt 0.265625 0.4765625
vt 0.2421875 0.4765625
vt 0.2421875 0.453125
vt 0.2265625 0.453125
vt 0.2265625 0.4765625
vt 0.203125 0.4765625
vt 0.203125 0.453125
vn 0.38268343236508984 0.9238795325112866 0
vn -0.38268343236508984 -0.9238795325112866 0
vn -0.9238795325112866 0.38268343236508984 0
vn 0.9238795325112866 -0.38268343236508984 0
vn 0 0 1
vn 0 0 -1
usemtl m_95a71441-cf5d-dbf6-fb33-8c7d325a935c
f 172/505/127 170/506/127 169/507/127 171/508/127
f 175/509/128 173/510/128 174/511/128 176/512/128
f 169/513/129 170/514/129 174/515/129 173/516/129
f 172/517/130 171/518/130 175/519/130 176/520/130
f 171/521/131 169/522/131 173/523/131 175/524/131
f 176/525/132 174/526/132 170/527/132 172/528/132
o ear_left
v -0.125 1.65625 0
v -0.125 1.65625 -0.125
v -0.29822741234586614 1.5844968564315456 0
v -0.29822741234586614 1.5844968564315456 -0.125
v -0.19675314356845441 1.8294774123458661 0
v -0.19675314356845441 1.8294774123458661 -0.125
v -0.36998055591432055 1.7577242687774117 0
v -0.36998055591432055 1.7577242687774117 -0.125
vt 0.2265625 0.453125
vt 0.2265625 0.4765625
vt 0.2421875 0.4765625
vt 0.2421875 0.453125
vt 0.1875 0.453125
vt 0.1875 0.4765625
vt 0.203125 0.4765625
vt 0.203125 0.453125
vt 0.2265625 0.4921875
vt 0.2265625 0.4765625
vt 0.203125 0.4765625
vt 0.203125 0.4921875
vt 0.25 0.4765625
vt 0.25 0.4921875
vt 0.2265625 0.4921875
vt 0.2265625 0.4765625
vt 0.2421875 0.453125
vt 0.2421875 0.4765625
vt 0.265625 0.4765625
vt 0.265625 0.453125
vt 0.203125 0.453125
vt 0.203125 0.4765625
vt 0.2265625 0.4765625
vt 0.2265625 0.453125
vn 0.38268343236508984 -0.9238795325112866 0
vn -0.38268343236508984 0.9238795325112866 0
vn 0.9238795325112866 0.38268343236508984 0
vn -0.9238795325112866 -0.38268343236508984 0
vn 0 0 1
vn 0 0 -1
usemtl m_95a71441-cf5d-dbf6-fb33-8c7d325a935c
f 180/529/133 178/530/133 177/531/133 179/532/133
f 183/533/134 181/534/134 182/535/134 184/536/134
f 177/537/135 178/538/135 182/539/135 181/540/135
f 180/541/136 179/542/136 183/543/136 184/544/136
f 179/545/137 177/546/137 181/547/137 183/548/137
f 184/549/138 182/550/138 178/551/138 180/552/138
o skull_spike_middle
v 0.15625 2.0260409790231124 0.4805193136570687
v 0.15625 1.65625 -0.3125
v 0.15625 1.7428197955741591 0.6125875204510373
v 0.15625 1.373028816551047 -0.18043179320603142
v -0.15625 2.0260409790231124 0.4805193136570687
v -0.15625 1.65625 -0.3125
v -0.15625 1.7428197955741591 0.6125875204510373
v -0.15625 1.373028816551047 -0.18043179320603142
vt 0.109375 0.6953125
vt 0.109375 0.734375
vt 0 0.734375
vt 0 0.6953125
vt 0.2578125 0.6953125
vt 0.2578125 0.734375
vt 0.1484375 0.734375
vt 0.1484375 0.6953125
vt 0.109375 0.84375
vt 0.109375 0.734375
vt 0.1484375 0.734375
vt 0.1484375 0.84375
vt 0.1484375 0.734375
vt 0.1484375 0.84375
vt 0.1875 0.84375
vt 0.1875 0.734375
vt 0.296875 0.6953125
vt 0.296875 0.734375
vt 0.2578125 0.734375
vt 0.2578125 0.6953125
vt 0.1484375 0.6953125
vt 0.1484375 0.734375
vt 0.109375 0.734375
vt 0.109375 0.6953125
vn 1 0 0
vn -1 0 0
vn 0 0.9063077870366499 -0.42261826174069944
vn 0 -0.9063077870366499 0.42261826174069944
vn 0 0.42261826174069944 0.9063077870366499
vn 0 -0.42261826174069944 -0.9063077870366499
usemtl m_95a71441-cf5d-dbf6-fb33-8c7d325a935c
f 188/553/139 186/554/139 185/555/139 187/556/139
f 191/557/140 189/558/140 190/559/140 192/560/140
f 185/561/141 186/562/141 190/563/141 189/564/141
f 188/565/142 187/566/142 191/567/142 192/568/142
f 187/569/143 185/570/143 189/571/143 191/572/143
f 192/573/144 190/574/144 186/575/144 188/576/144
o skull_spike_back
v 0.15625 1.4654428580865546 0.7059721848584006
v 0.15625 1.594852380637815 0.22300927171386642
v 0.15625 1.1635910373712208 0.6250912332638627
v 0.15625 1.2930005599224812 0.14212832011932863
v -0.15625 1.4654428580865546 0.7059721848584006
v -0.15625 1.594852380637815 0.22300927171386642
v -0.15625 1.1635910373712208 0.6250912332638627
v -0.15625 1.2930005599224812 0.14212832011932863
vt 0.375 0.8984375
vt 0.375 0.9375
vt 0.3125 0.9375
vt 0.3125 0.8984375
vt 0.4765625 0.8984375
vt 0.4765625 0.9375
vt 0.4140625 0.9375
vt 0.4140625 0.8984375
vt 0.375 1
vt 0.375 0.9375
vt 0.4140625 0.9375
vt 0.4140625 1
vt 0.4140625 0.9375
vt 0.4140625 1
vt 0.453125 1
vt 0.453125 0.9375
vt 0.515625 0.8984375
vt 0.515625 0.9375
vt 0.4765625 0.9375
vt 0.4765625 0.8984375
vt 0.4140625 0.8984375
vt 0.4140625 0.9375
vt 0.375 0.9375
vt 0.375 0.8984375
vn 1 0 0
vn -1 0 0
vn 0 0.9659258262890683 0.25881904510252074
vn 0 -0.9659258262890683 -0.25881904510252074
vn 0 -0.25881904510252074 0.9659258262890683
vn 0 0.25881904510252074 -0.9659258262890683
usemtl m_95a71441-cf5d-dbf6-fb33-8c7d325a935c
f 196/577/145 194/578/145 193/579/145 195/580/145
f 199/581/146 197/582/146 198/583/146 200/584/146
f 193/585/147 194/586/147 198/587/147 197/588/147
f 196/589/148 195/590/148 199/591/148 200/592/148
f 195/593/149 193/594/149 197/595/149 199/596/149
f 200/597/150 198/598/150 194/599/150 196/600/150
o skull_spike_top_right
v 0.6350308300766971 1.7248078749455416 0.579877257044271
v 0.3125 1.65625 -0.09375
v 0.6185445848328819 1.4152402283414451 0.6192768242216139
v 0.2960137547561847 1.3466823533959036 -0.05435043282265706
v 0.35338502307533654 1.7565587539707703 0.7114970544900867
v 0.03085419299863936 1.6880008790252288 0.03786979744581581
v 0.3368987778315212 1.446991107366674 0.7508966216674298
v 0.014367947754824022 1.3784332324211324 0.07726936462315875
vt 0.390625 0.5703125
vt 0.390625 0.609375
vt 0.296875 0.609375
vt 0.296875 0.5703125
vt 0.5234375 0.5703125
vt 0.5234375 0.609375
vt 0.4296875 0.609375
vt 0.4296875 0.5703125
vt 0.390625 0.703125
vt 0.390625 0.609375
vt 0.4296875 0.609375
vt 0.4296875 0.703125
vt 0.4296875 0.609375
vt 0.4296875 0.703125
vt 0.46875 0.703125
vt 0.46875 0.609375
vt 0.5625 0.5703125
vt 0.5625 0.609375
vt 0.5234375 0.609375
vt 0.5234375 0.5703125
vt 0.4296875 0.5703125
vt 0.4296875 0.609375
vt 0.390625 0.609375
vt 0.390625 0.5703125
vn 0.9012665824043542 -0.10160281288073178 -0.42118335182661076
vn -0.9012665824043542 0.10160281288073178 0.42118335182661076
vn 0.052755984780209125 0.990616469133109 -0.1260786149674975
vn -0.052755984780209125 -0.990616469133109 0.1260786149674975
vn 0.4300411067689296 0.09141049992738878 0.8981696760590278
vn -0.4300411067689296 -0.09141049992738878 -0.8981696760590278
usemtl m_95a71441-cf5d-dbf6-fb33-8c7d325a935c
f 204/601/151 202/602/151 201/603/151 203/604/151
f 207/605/152 205/606/152 206/607/152 208/608/152
f 201/609/153 202/610/153 206/611/153 205/612/153
f 204/613/154 203/614/154 207/615/154 208/616/154
f 203/617/155 201/618/155 205/619/155 207/620/155
f 208/621/156 206/622/156 202/623/156 204/624/156
o skull_spike_top_left
v -0.35338502307533654 1.7565587539707703 0.7114970544900867
v -0.03085419299863936 1.6880008790252288 0.03786979744581581
v -0.3368987778315212 1.446991107366674 0.7508966216674298
v -0.014367947754824022 1.3784332324211324 0.07726936462315875
v -0.6350308300766971 1.7248078749455416 0.579877257044271
v -0.3125 1.65625 -0.09375
v -0.6185445848328819 1.4152402283414451 0.6192768242216139
v -0.2960137547561847 1.3466823533959036 -0.05435043282265706
vt 0.4296875 0.5703125
vt 0.4296875 0.609375
vt 0.5234375 0.609375
vt 0.5234375 0.5703125
vt 0.296875 0.5703125
vt 0.296875 0.609375
vt 0.390625 0.609375
vt 0.390625 0.5703125
vt 0.4296875 0.703125
vt 0.4296875 0.609375
vt 0.390625 0.609375
vt 0.390625 0.703125
vt 0.46875 0.609375
vt 0.46875 0.703125
vt 0.4296875 0.703125
vt 0.4296875 0.609375
vt 0.5234375 0.5703125
vt 0.5234375 0.609375
vt 0.5625 0.609375
vt 0.5625 0.5703125
vt 0.390625 0.5703125
vt 0.390625 0.609375
vt 0.4296875 0.609375
vt 0.4296875 0.5703125
vn 0.9012665824043542 0.10160281288073178 0.42118335182661076
vn -0.9012665824043542 -0.10160281288073178 -0.42118335182661076
vn -0.052755984780209125 0.990616469133109 -0.1260786149674975
vn 0.052755984780209125 -0.990616469133109 0.1260786149674975
vn -0.4300411067689296 0.09141049992738878 0.8981696760590278
vn 0.4300411067689296 -0.09141049992738878 -0.8981696760590278
usemtl m_95a71441-cf5d-dbf6-fb33-8c7d325a935c
f 212/625/157 210/626/157 209/627/157 211/628/157
f 215/629/158 213/630/158 214/631/158 216/632/158
f 209/633/159 210/634/159 214/635/159 213/636/159
f 212/637/160 211/638/160 215/639/160 216/640/160
f 211/641/161 209/642/161 213/643/161 215/644/161
f 216/645/162 214/646/162 210/647/162 212/648/162
o skull_spike_bottom_right
v 0.6034986867314882 1.1725440083863574 0.6342126973404474
v 0.34335095183680825 1.4684488180635025 0.07081252904166196
v 0.5726477348946801 0.891595190322855 0.5009001682987855
v 0.3125 1.1875 -0.0625
v 0.31588497049298064 1.147381068740926 0.753801269954538
v 0.05573723559830063 1.443285878418071 0.19040110165575247
v 0.2850340186561724 0.8664322506774236 0.6204887409128759
v 0.02488628376149235 1.1623370603545686 0.05708857261409056
vt 0.0859375 0.5703125
vt 0.0859375 0.609375
vt 0 0.609375
vt 0 0.5703125
vt 0.2109375 0.5703125
vt 0.2109375 0.609375
vt 0.125 0.609375
vt 0.125 0.5703125
vt 0.0859375 0.6953125
vt 0.0859375 0.609375
vt 0.125 0.609375
vt 0.125 0.6953125
vt 0.125 0.609375
vt 0.125 0.6953125
vt 0.1640625 0.6953125
vt 0.1640625 0.609375
vt 0.25 0.5703125
vt 0.25 0.609375
vt 0.2109375 0.609375
vt 0.2109375 0.5703125
vt 0.125 0.5703125
vt 0.125 0.609375
vt 0.0859375 0.609375
vt 0.0859375 0.5703125
vn 0.9203638919632243 0.08052140686538042 -0.3826834323650898
vn -0.9203638919632243 -0.08052140686538042 0.3826834323650898
vn 0.09872304587778659 0.899036217803208 0.42660009293331813
vn -0.09872304587778659 -0.899036217803208 -0.42660009293331813
vn 0.3783967053013528 -0.43040699589402936 0.8194911538891425
vn -0.3783967053013528 0.43040699589402936 -0.8194911538891425
usemtl m_95a71441-cf5d-dbf6-fb33-8c7d325a935c
f 220/649/163 218/650/163 217/651/163 219/652/163
f 223/653/164 221/654/164 222/655/164 224/656/164
f 217/657/165 218/658/165 222/659/165 221/660/165
f 220/661/166 219/662/166 223/663/166 224/664/166
f 219/665/167 217/666/167 221/667/167 223/668/167
f 224/669/168 222/670/168 218/671/168 220/672/168
o skull_spike_bottom_left
v -0.31588497049298064 1.147381068740926 0.753801269954538
v -0.05573723559830063 1.443285878418071 0.19040110165575247
v -0.2850340186561724 0.8664322506774236 0.6204887409128759
v -0.02488628376149235 1.1623370603545686 0.05708857261409056
v -0.6034986867314882 1.1725440083863574 0.6342126973404474
v -0.34335095183680825 1.4684488180635025 0.07081252904166196
v -0.5726477348946801 0.891595190322855 0.5009001682987855
v -0.3125 1.1875 -0.0625
vt 0.125 0.5703125
vt 0.125 0.609375
vt 0.2109375 0.609375
vt 0.2109375 0.5703125
vt 0 0.5703125
vt 0 0.609375
vt 0.0859375 0.609375
vt 0.0859375 0.5703125
vt 0.125 0.6953125
vt 0.125 0.609375
vt 0.0859375 0.609375
vt 0.0859375 0.6953125
vt 0.1640625 0.609375
vt 0.1640625 0.6953125
vt 0.125 0.6953125
vt 0.125 0.609375
vt 0.2109375 0.5703125
vt 0.2109375 0.609375
vt 0.25 0.609375
vt 0.25 0.5703125
vt 0.0859375 0.5703125
vt 0.0859375 0.609375
vt 0.125 0.609375
vt 0.125 0.5703125
vn 0.9203638919632243 -0.08052140686538042 0.3826834323650898
vn -0.9203638919632243 0.08052140686538042 -0.3826834323650898
vn -0.09872304587778659 0.899036217803208 0.42660009293331813
vn 0.09872304587778659 -0.899036217803208 -0.42660009293331813
vn -0.3783967053013528 -0.43040699589402936 0.8194911538891425
vn 0.3783967053013528 0.43040699589402936 -0.8194911538891425
usemtl m_95a71441-cf5d-dbf6-fb33-8c7d325a935c
f 228/673/169 226/674/169 225/675/169 227/676/169
f 231/677/170 229/678/170 230/679/170 232/680/170
f 225/681/171 226/682/171 230/683/171 229/684/171
f 228/685/172 227/686/172 231/687/172 232/688/172
f 227/689/173 225/690/173 229/691/173 231/692/173
f 232/693/174 230/694/174 226/695/174 228/696/174
o leftFoot
v 0 0.1875 0.0625
v 0 0.1875 -0.21875
v 0 0 0.0625
v 0 0 -0.21875
v -0.1875 0.1875 0.0625
v -0.1875 0.1875 -0.21875
v -0.1875 0 0.0625
v -0.1875 0 -0.21875
vt 0.5234375 0.515625
vt 0.5234375 0.5390625
vt 0.5546875 0.5390625
vt 0.5546875 0.515625
vt 0.46875 0.515625
vt 0.46875 0.5390625
vt 0.5 0.5390625
vt 0.5 0.515625
vt 0.5234375 0.5703125
vt 0.5234375 0.5390625
vt 0.5 0.5390625
vt 0.5 0.5703125
vt 0.546875 0.5390625
vt 0.546875 0.5703125
vt 0.5234375 0.5703125
vt 0.5234375 0.5390625
vt 0.5546875 0.515625
vt 0.5546875 0.5390625
vt 0.578125 0.5390625
vt 0.578125 0.515625
vt 0.5 0.515625
vt 0.5 0.5390625
vt 0.5234375 0.5390625
vt 0.5234375 0.515625
vn 1 0 0
vn -1 0 0
vn 0 1 0
vn 0 -1 0
vn 0 0 1
vn 0 0 -1
usemtl m_95a71441-cf5d-dbf6-fb33-8c7d325a935c
f 236/697/175 234/698/175 233/699/175 235/700/175
f 239/701/176 237/702/176 238/703/176 240/704/176
f 233/705/177 234/706/177 238/707/177 237/708/177
f 236/709/178 235/710/178 239/711/178 240/712/178
f 235/713/179 233/714/179 237/715/179 239/716/179
f 240/717/180 238/718/180 234/719/180 236/720/180
o leftFoot
v -0.10031250000000001 0.13093749999999998 -0.1565625
v -0.10031250000000001 0.13093749999999998 -0.26218749999999996
v -0.10031250000000001 0.0253125 -0.1565625
v -0.10031250000000001 0.0253125 -0.26218749999999996
v -0.2059375 0.13093749999999998 -0.1565625
v -0.2059375 0.13093749999999998 -0.26218749999999996
v -0.2059375 0.0253125 -0.1565625
v -0.2059375 0.0253125 -0.26218749999999996
vt 0.4921875 0.46875
vt 0.4921875 0.4921875
vt 0.46875 0.4921875
vt 0.46875 0.46875
vt 0.5390625 0.46875
vt 0.5390625 0.4921875
vt 0.515625 0.4921875
vt 0.515625 0.46875
vt 0.4921875 0.515625
vt 0.4921875 0.4921875
vt 0.515625 0.4921875
vt 0.515625 0.515625
vt 0.515625 0.4921875
vt 0.515625 0.515625
vt 0.5390625 0.515625
vt 0.5390625 0.4921875
vt 0.5625 0.46875
vt 0.5625 0.4921875
vt 0.5390625 0.4921875
vt 0.5390625 0.46875
vt 0.515625 0.46875
vt 0.515625 0.4921875
vt 0.4921875 0.4921875
vt 0.4921875 0.46875
vn 1 0 0
vn -1 0 0
vn 0 1 0
vn 0 -1 0
vn 0 0 1
vn 0 0 -1
usemtl m_95a71441-cf5d-dbf6-fb33-8c7d325a935c
f 244/721/181 242/722/181 241/723/181 243/724/181
f 247/725/182 245/726/182 246/727/182 248/728/182
f 241/729/183 242/730/183 246/731/183 245/732/183
f 244/733/184 243/734/184 247/735/184 248/736/184
f 243/737/185 241/738/185 245/739/185 247/740/185
f 248/741/186 246/742/186 242/743/186 244/744/186
o leftFoot
v -0.028124999999999997 0.146875 -0.21875
v -0.028124999999999997 0.146875 -0.31875
v -0.028124999999999997 0 -0.21875
v -0.028124999999999997 0 -0.31875
v -0.159375 0.146875 -0.21875
v -0.159375 0.146875 -0.31875
v -0.159375 0 -0.21875
v -0.159375 0 -0.31875
vt 0.546875 0.96875
vt 0.546875 0.984375
vt 0.5625 0.984375
vt 0.5625 0.96875
vt 0.515625 0.96875
vt 0.515625 0.984375
vt 0.53125 0.984375
vt 0.53125 0.96875
vt 0.546875 1
vt 0.546875 0.984375
vt 0.53125 0.984375
vt 0.53125 1
vt 0.5625 0.984375
vt 0.5625 1
vt 0.546875 1
vt 0.546875 0.984375
vt 0.5625 0.96875
vt 0.5625 0.984375
vt 0.578125 0.984375
vt 0.578125 0.96875
vt 0.53125 0.96875
vt 0.53125 0.984375
vt 0.546875 0.984375
vt 0.546875 0.96875
vn 1 0 0
vn -1 0 0
vn 0 1 0
vn 0 -1 0
vn 0 0 1
vn 0 0 -1
usemtl m_95a71441-cf5d-dbf6-fb33-8c7d325a935c
f 252/745/187 250/746/187 249/747/187 251/748/187
f 255/749/188 253/750/188 254/751/188 256/752/188
f 249/753/189 250/754/189 254/755/189 253/756/189
f 252/757/190 251/758/190 255/759/190 256/760/190
f 251/761/191 249/762/191 253/763/191 255/764/191
f 256/765/192 254/766/192 250/767/192 252/768/192
o leftFoot
v -0.04375 0.1 -0.28125
v -0.04375 0.1 -0.38125
v -0.04375 0 -0.28125
v -0.04375 0 -0.38125
v -0.14375 0.1 -0.28125
v -0.14375 0.1 -0.38125
v -0.14375 0 -0.28125
v -0.14375 0 -0.38125
vt 0.546875 0.90625
vt 0.546875 0.921875
vt 0.5625 0.921875
vt 0.5625 0.90625
vt 0.515625 0.90625
vt 0.515625 0.921875
vt 0.53125 0.921875
vt 0.53125 0.90625
vt 0.546875 0.9375
vt 0.546875 0.921875
vt 0.53125 0.921875
vt 0.53125 0.9375
vt 0.5625 0.921875
vt 0.5625 0.9375
vt 0.546875 0.9375
vt 0.546875 0.921875
vt 0.5625 0.90625
vt 0.5625 0.921875
vt 0.578125 0.921875
vt 0.578125 0.90625
vt 0.53125 0.90625
vt 0.53125 0.921875
vt 0.546875 0.921875
vt 0.546875 0.90625
vn 1 0 0
vn -1 0 0
vn 0 1 0
vn 0 -1 0
vn 0 0 1
vn 0 0 -1
usemtl m_95a71441-cf5d-dbf6-fb33-8c7d325a935c
f 260/769/193 258/770/193 257/771/193 259/772/193
f 263/773/194 261/774/194 262/775/194 264/776/194
f 257/777/195 258/778/195 262/779/195 261/780/195
f 260/781/196 259/782/196 263/783/196 264/784/196
f 259/785/197 257/786/197 261/787/197 263/788/197
f 264/789/198 262/790/198 258/791/198 260/792/198
o leftFoot
v -0.0625 0.0625 -0.38125
v -0.0625 0.0625 -0.44375
v -0.0625 0 -0.38125
v -0.0625 0 -0.44375
v -0.125 0.0625 -0.38125
v -0.125 0.0625 -0.44375
v -0.125 0 -0.38125
v -0.125 0 -0.44375
vt 0.015625 0.4609375
vt 0.015625 0.46875
vt 0.0234375 0.46875
vt 0.0234375 0.4609375
vt 0 0.4609375
vt 0 0.46875
vt 0.0078125 0.46875
vt 0.0078125 0.4609375
vt 0.015625 0.4765625
vt 0.015625 0.46875
vt 0.0078125 0.46875
vt 0.0078125 0.4765625
vt 0.0234375 0.46875
vt 0.0234375 0.4765625
vt 0.015625 0.4765625
vt 0.015625 0.46875
vt 0.0234375 0.4609375
vt 0.0234375 0.46875
vt 0.03125 0.46875
vt 0.03125 0.4609375
vt 0.0078125 0.4609375
vt 0.0078125 0.46875
vt 0.015625 0.46875
vt 0.015625 0.4609375
vn 1 0 0
vn -1 0 0
vn 0 1 0
vn 0 -1 0
vn 0 0 1
vn 0 0 -1
usemtl m_95a71441-cf5d-dbf6-fb33-8c7d325a935c
f 268/793/199 266/794/199 265/795/199 267/796/199
f 271/797/200 269/798/200 270/799/200 272/800/200
f 265/801/201 266/802/201 270/803/201 269/804/201
f 268/805/202 267/806/202 271/807/202 272/808/202
f 267/809/203 265/810/203 269/811/203 271/812/203
f 272/813/204 270/814/204 266/815/204 268/816/204
o leftLeg2
v -0.0625 0.5 0.03125
v -0.0625 0.5 -0.03125
v -0.0625 0.3125 0.03125
v -0.0625 0.3125 -0.03125
v -0.125 0.5 0.03125
v -0.125 0.5 -0.03125
v -0.125 0.3125 0.03125
v -0.125 0.3125 -0.03125
vt 0.265625 0.6328125
vt 0.265625 0.65625
vt 0.2734375 0.65625
vt 0.2734375 0.6328125
vt 0.25 0.6328125
vt 0.25 0.65625
vt 0.2578125 0.65625
vt 0.2578125 0.6328125
vt 0.265625 0.6640625
vt 0.265625 0.65625
vt 0.2578125 0.65625
vt 0.2578125 0.6640625
vt 0.2734375 0.65625
vt 0.2734375 0.6640625
vt 0.265625 0.6640625
vt 0.265625 0.65625
vt 0.2734375 0.6328125
vt 0.2734375 0.65625
vt 0.28125 0.65625
vt 0.28125 0.6328125
vt 0.2578125 0.6328125
vt 0.2578125 0.65625
vt 0.265625 0.65625
vt 0.265625 0.6328125
vn 1 0 0
vn -1 0 0
vn 0 1 0
vn 0 -1 0
vn 0 0 1
vn 0 0 -1
usemtl m_95a71441-cf5d-dbf6-fb33-8c7d325a935c
f 276/817/205 274/818/205 273/819/205 275/820/205
f 279/821/206 277/822/206 278/823/206 280/824/206
f 273/825/207 274/826/207 278/827/207 277/828/207
f 276/829/208 275/830/208 279/831/208 280/832/208
f 275/833/209 273/834/209 277/835/209 279/836/209
f 280/837/210 278/838/210 274/839/210 276/840/210
o leftLeg2
v 0.018750000000000003 0.33125 0.1125
v 0.018750000000000003 0.33125 -0.1125
v 0.018750000000000003 0.16875 0.1125
v 0.018750000000000003 0.16875 -0.1125
v -0.20625 0.33125 0.1125
v -0.20625 0.33125 -0.1125
v -0.20625 0.16875 0.1125
v -0.20625 0.16875 -0.1125
vt 0.375 0.84375
vt 0.375 0.8671875
vt 0.40625 0.8671875
vt 0.40625 0.84375
vt 0.3125 0.84375
vt 0.3125 0.8671875
vt 0.34375 0.8671875
vt 0.34375 0.84375
vt 0.375 0.8984375
vt 0.375 0.8671875
vt 0.34375 0.8671875
vt 0.34375 0.8984375
vt 0.40625 0.8671875
vt 0.40625 0.8984375
vt 0.375 0.8984375
vt 0.375 0.8671875
vt 0.40625 0.84375
vt 0.40625 0.8671875
vt 0.4375 0.8671875
vt 0.4375 0.84375
vt 0.34375 0.84375
vt 0.34375 0.8671875
vt 0.375 0.8671875
vt 0.375 0.84375
vn 1 0 0
vn -1 0 0
vn 0 1 0
vn 0 -1 0
vn 0 0 1
vn 0 0 -1
usemtl m_95a71441-cf5d-dbf6-fb33-8c7d325a935c
f 284/841/211 282/842/211 281/843/211 283/844/211
f 287/845/212 285/846/212 286/847/212 288/848/212
f 281/849/213 282/850/213 286/851/213 285/852/213
f 284/853/214 283/854/214 287/855/214 288/856/214
f 283/857/215 281/858/215 285/859/215 287/860/215
f 288/861/216 286/862/216 282/863/216 284/864/216
o leftLeg
v -0.0625 0.6875 0.03125
v -0.0625 0.6875 -0.03125
v -0.0625 0.5 0.03125
v -0.0625 0.5 -0.03125
v -0.125 0.6875 0.03125
v -0.125 0.6875 -0.03125
v -0.125 0.5 0.03125
v -0.125 0.5 -0.03125
vt 0.265625 0.6640625
vt 0.265625 0.6875
vt 0.2734375 0.6875
vt 0.2734375 0.6640625
vt 0.25 0.6640625
vt 0.25 0.6875
vt 0.2578125 0.6875
vt 0.2578125 0.6640625
vt 0.265625 0.6953125
vt 0.265625 0.6875
vt 0.2578125 0.6875
vt 0.2578125 0.6953125
vt 0.2734375 0.6875
vt 0.2734375 0.6953125
vt 0.265625 0.6953125
vt 0.265625 0.6875
vt 0.2734375 0.6640625
vt 0.2734375 0.6875
vt 0.28125 0.6875
vt 0.28125 0.6640625
vt 0.2578125 0.6640625
vt 0.2578125 0.6875
vt 0.265625 0.6875
vt 0.265625 0.6640625
vn 1 0 0
vn -1 0 0
vn 0 1 0
vn 0 -1 0
vn 0 0 1
vn 0 0 -1
usemtl m_95a71441-cf5d-dbf6-fb33-8c7d325a935c
f 292/865/217 290/866/217 289/867/217 291/868/217
f 295/869/218 293/870/218 294/871/218 296/872/218
f 289/873/219 290/874/219 294/875/219 293/876/219
f 292/877/220 291/878/220 295/879/220 296/880/220
f 291/881/221 289/882/221 293/883/221 295/884/221
f 296/885/222 294/886/222 290/887/222 292/888/222
o rightFoot
v 0.1875 0.1875 0.0625
v 0.1875 0.1875 -0.21875
v 0.1875 0 0.0625
v 0.1875 0 -0.21875
v 0 0.1875 0.0625
v 0 0.1875 -0.21875
v 0 0 0.0625
v 0 0 -0.21875
vt 0.5 0.515625
vt 0.5 0.5390625
vt 0.46875 0.5390625
vt 0.46875 0.515625
vt 0.5546875 0.515625
vt 0.5546875 0.5390625
vt 0.5234375 0.5390625
vt 0.5234375 0.515625
vt 0.5 0.5703125
vt 0.5 0.5390625
vt 0.5234375 0.5390625
vt 0.5234375 0.5703125
vt 0.5234375 0.5390625
vt 0.5234375 0.5703125
vt 0.546875 0.5703125
vt 0.546875 0.5390625
vt 0.578125 0.515625
vt 0.578125 0.5390625
vt 0.5546875 0.5390625
vt 0.5546875 0.515625
vt 0.5234375 0.515625
vt 0.5234375 0.5390625
vt 0.5 0.5390625
vt 0.5 0.515625
vn 1 0 0
vn -1 0 0
vn 0 1 0
vn 0 -1 0
vn 0 0 1
vn 0 0 -1
usemtl m_95a71441-cf5d-dbf6-fb33-8c7d325a935c
f 300/889/223 298/890/223 297/891/223 299/892/223
f 303/893/224 301/894/224 302/895/224 304/896/224
f 297/897/225 298/898/225 302/899/225 301/900/225
f 300/901/226 299/902/226 303/903/226 304/904/226
f 299/905/227 297/906/227 301/907/227 303/908/227
f 304/909/228 302/910/228 298/911/228 300/912/228
o rightFoot
v 0.159375 0.146875 -0.21875
v 0.159375 0.146875 -0.31875
v 0.159375 0 -0.21875
v 0.159375 0 -0.31875
v 0.028124999999999997 0.146875 -0.21875
v 0.028124999999999997 0.146875 -0.31875
v 0.028124999999999997 0 -0.21875
v 0.028124999999999997 0 -0.31875
vt 0.53125 0.96875
vt 0.53125 0.984375
vt 0.515625 0.984375
vt 0.515625 0.96875
vt 0.5625 0.96875
vt 0.5625 0.984375
vt 0.546875 0.984375
vt 0.546875 0.96875
vt 0.53125 1
vt 0.53125 0.984375
vt 0.546875 0.984375
vt 0.546875 1
vt 0.546875 0.984375
vt 0.546875 1
vt 0.5625 1
vt 0.5625 0.984375
vt 0.578125 0.96875
vt 0.578125 0.984375
vt 0.5625 0.984375
vt 0.5625 0.96875
vt 0.546875 0.96875
vt 0.546875 0.984375
vt 0.53125 0.984375
vt 0.53125 0.96875
vn 1 0 0
vn -1 0 0
vn 0 1 0
vn 0 -1 0
vn 0 0 1
vn 0 0 -1
usemtl m_95a71441-cf5d-dbf6-fb33-8c7d325a935c
f 308/913/229 306/914/229 305/915/229 307/916/229
f 311/917/230 309/918/230 310/919/230 312/920/230
f 305/921/231 306/922/231 310/923/231 309/924/231
f 308/925/232 307/926/232 311/927/232 312/928/232
f 307/929/233 305/930/233 309/931/233 311/932/233
f 312/933/234 310/934/234 306/935/234 308/936/234
o rightFoot
v 0.14375 0.1 -0.28125
v 0.14375 0.1 -0.38125
v 0.14375 0 -0.28125
v 0.14375 0 -0.38125
v 0.04375 0.1 -0.28125
v 0.04375 0.1 -0.38125
v 0.04375 0 -0.28125
v 0.04375 0 -0.38125
vt 0.53125 0.90625
vt 0.53125 0.921875
vt 0.515625 0.921875
vt 0.515625 0.90625
vt 0.5625 0.90625
vt 0.5625 0.921875
vt 0.546875 0.921875
vt 0.546875 0.90625
vt 0.53125 0.9375
vt 0.53125 0.921875
vt 0.546875 0.921875
vt 0.546875 0.9375
vt 0.546875 0.921875
vt 0.546875 0.9375
vt 0.5625 0.9375
vt 0.5625 0.921875
vt 0.578125 0.90625
vt 0.578125 0.921875
vt 0.5625 0.921875
vt 0.5625 0.90625
vt 0.546875 0.90625
vt 0.546875 0.921875
vt 0.53125 0.921875
vt 0.53125 0.90625
vn 1 0 0
vn -1 0 0
vn 0 1 0
vn 0 -1 0
vn 0 0 1
vn 0 0 -1
usemtl m_95a71441-cf5d-dbf6-fb33-8c7d325a935c
f 316/937/235 314/938/235 313/939/235 315/940/235
f 319/941/236 317/942/236 318/943/236 320/944/236
f 313/945/237 314/946/237 318/947/237 317/948/237
f 316/949/238 315/950/238 319/951/238 320/952/238
f 315/953/239 313/954/239 317/955/239 319/956/239
f 320/957/240 318/958/240 314/959/240 316/960/240
o rightFoot
v 0.125 0.0625 -0.38125
v 0.125 0.0625 -0.44375
v 0.125 0 -0.38125
v 0.125 0 -0.44375
v 0.0625 0.0625 -0.38125
v 0.0625 0.0625 -0.44375
v 0.0625 0 -0.38125
v 0.0625 0 -0.44375
vt 0.0078125 0.4609375
vt 0.0078125 0.46875
vt 0 0.46875
vt 0 0.4609375
vt 0.0234375 0.4609375
vt 0.0234375 0.46875
vt 0.015625 0.46875
vt 0.015625 0.4609375
vt 0.0078125 0.4765625
vt 0.0078125 0.46875
vt 0.015625 0.46875
vt 0.015625 0.4765625
vt 0.015625 0.46875
vt 0.015625 0.4765625
vt 0.0234375 0.4765625
vt 0.0234375 0.46875
vt 0.03125 0.4609375
vt 0.03125 0.46875
vt 0.0234375 0.46875
vt 0.0234375 0.4609375
vt 0.015625 0.4609375
vt 0.015625 0.46875
vt 0.0078125 0.46875
vt 0.0078125 0.4609375
vn 1 0 0
vn -1 0 0
vn 0 1 0
vn 0 -1 0
vn 0 0 1
vn 0 0 -1
usemtl m_95a71441-cf5d-dbf6-fb33-8c7d325a935c
f 324/961/241 322/962/241 321/963/241 323/964/241
f 327/965/242 325/966/242 326/967/242 328/968/242
f 321/969/243 322/970/243 326/971/243 325/972/243
f 324/973/244 323/974/244 327/975/244 328/976/244
f 323/977/245 321/978/245 325/979/245 327/980/245
f 328/981/246 326/982/246 322/983/246 324/984/246
o rightFoot
v 0.2059375 0.13093749999999998 -0.1565625
v 0.2059375 0.13093749999999998 -0.26218749999999996
v 0.2059375 0.0253125 -0.1565625
v 0.2059375 0.0253125 -0.26218749999999996
v 0.10031250000000001 0.13093749999999998 -0.1565625
v 0.10031250000000001 0.13093749999999998 -0.26218749999999996
v 0.10031250000000001 0.0253125 -0.1565625
v 0.10031250000000001 0.0253125 -0.26218749999999996
vt 0.515625 0.46875
vt 0.515625 0.4921875
vt 0.5390625 0.4921875
vt 0.5390625 0.46875
vt 0.46875 0.46875
vt 0.46875 0.4921875
vt 0.4921875 0.4921875
vt 0.4921875 0.46875
vt 0.515625 0.515625
vt 0.515625 0.4921875
vt 0.4921875 0.4921875
vt 0.4921875 0.515625
vt 0.5390625 0.4921875
vt 0.5390625 0.515625
vt 0.515625 0.515625
vt 0.515625 0.4921875
vt 0.5390625 0.46875
vt 0.5390625 0.4921875
vt 0.5625 0.4921875
vt 0.5625 0.46875
vt 0.4921875 0.46875
vt 0.4921875 0.4921875
vt 0.515625 0.4921875
vt 0.515625 0.46875
vn 1 0 0
vn -1 0 0
vn 0 1 0
vn 0 -1 0
vn 0 0 1
vn 0 0 -1
usemtl m_95a71441-cf5d-dbf6-fb33-8c7d325a935c
f 332/985/247 330/986/247 329/987/247 331/988/247
f 335/989/248 333/990/248 334/991/248 336/992/248
f 329/993/249 330/994/249 334/995/249 333/996/249
f 332/997/250 331/998/250 335/999/250 336/1000/250
f 331/1001/251 329/1002/251 333/1003/251 335/1004/251
f 336/1005/252 334/1006/252 330/1007/252 332/1008/252
o rightLeg2
v 0.125 0.5 0.03125
v 0.125 0.5 -0.03125
v 0.125 0.3125 0.03125
v 0.125 0.3125 -0.03125
v 0.0625 0.5 0.03125
v 0.0625 0.5 -0.03125
v 0.0625 0.3125 0.03125
v 0.0625 0.3125 -0.03125
vt 0.2578125 0.6328125
vt 0.2578125 0.65625
vt 0.25 0.65625
vt 0.25 0.6328125
vt 0.2734375 0.6328125
vt 0.2734375 0.65625
vt 0.265625 0.65625
vt 0.265625 0.6328125
vt 0.2578125 0.6640625
vt 0.2578125 0.65625
vt 0.265625 0.65625
vt 0.265625 0.6640625
vt 0.265625 0.65625
vt 0.265625 0.6640625
vt 0.2734375 0.6640625
vt 0.2734375 0.65625
vt 0.28125 0.6328125
vt 0.28125 0.65625
vt 0.2734375 0.65625
vt 0.2734375 0.6328125
vt 0.265625 0.6328125
vt 0.265625 0.65625
vt 0.2578125 0.65625
vt 0.2578125 0.6328125
vn 1 0 0
vn -1 0 0
vn 0 1 0
vn 0 -1 0
vn 0 0 1
vn 0 0 -1
usemtl m_95a71441-cf5d-dbf6-fb33-8c7d325a935c
f 340/1009/253 338/1010/253 337/1011/253 339/1012/253
f 343/1013/254 341/1014/254 342/1015/254 344/1016/254
f 337/1017/255 338/1018/255 342/1019/255 341/1020/255
f 340/1021/256 339/1022/256 343/1023/256 344/1024/256
f 339/1025/257 337/1026/257 341/1027/257 343/1028/257
f 344/1029/258 342/1030/258 338/1031/258 340/1032/258
o rightLeg2
v 0.20625 0.33125 0.1125
v 0.20625 0.33125 -0.1125
v 0.20625 0.16875 0.1125
v 0.20625 0.16875 -0.1125
v -0.018750000000000003 0.33125 0.1125
v -0.018750000000000003 0.33125 -0.1125
v -0.018750000000000003 0.16875 0.1125
v -0.018750000000000003 0.16875 -0.1125
vt 0.34375 0.84375
vt 0.34375 0.8671875
vt 0.3125 0.8671875
vt 0.3125 0.84375
vt 0.40625 0.84375
vt 0.40625 0.8671875
vt 0.375 0.8671875
vt 0.375 0.84375
vt 0.34375 0.8984375
vt 0.34375 0.8671875
vt 0.375 0.8671875
vt 0.375 0.8984375
vt 0.375 0.8671875
vt 0.375 0.8984375
vt 0.40625 0.8984375
vt 0.40625 0.8671875
vt 0.4375 0.84375
vt 0.4375 0.8671875
vt 0.40625 0.8671875
vt 0.40625 0.84375
vt 0.375 0.84375
vt 0.375 0.8671875
vt 0.34375 0.8671875
vt 0.34375 0.84375
vn 1 0 0
vn -1 0 0
vn 0 1 0
vn 0 -1 0
vn 0 0 1
vn 0 0 -1
usemtl m_95a71441-cf5d-dbf6-fb33-8c7d325a935c
f 348/1033/259 346/1034/259 345/1035/259 347/1036/259
f 351/1037/260 349/1038/260 350/1039/260 352/1040/260
f 345/1041/261 346/1042/261 350/1043/261 349/1044/261
f 348/1045/262 347/1046/262 351/1047/262 352/1048/262
f 347/1049/263 345/1050/263 349/1051/263 351/1052/263
f 352/1053/264 350/1054/264 346/1055/264 348/1056/264
o rightLeg
v 0.125 0.6875 0.03125
v 0.125 0.6875 -0.03125
v 0.125 0.5 0.03125
v 0.125 0.5 -0.03125
v 0.0625 0.6875 0.03125
v 0.0625 0.6875 -0.03125
v 0.0625 0.5 0.03125
v 0.0625 0.5 -0.03125
vt 0.2578125 0.6640625
vt 0.2578125 0.6875
vt 0.25 0.6875
vt 0.25 0.6640625
vt 0.2734375 0.6640625
vt 0.2734375 0.6875
vt 0.265625 0.6875
vt 0.265625 0.6640625
vt 0.2578125 0.6953125
vt 0.2578125 0.6875
vt 0.265625 0.6875
vt 0.265625 0.6953125
vt 0.265625 0.6875
vt 0.265625 0.6953125
vt 0.2734375 0.6953125
vt 0.2734375 0.6875
vt 0.28125 0.6640625
vt 0.28125 0.6875
vt 0.2734375 0.6875
vt 0.2734375 0.6640625
vt 0.265625 0.6640625
vt 0.265625 0.6875
vt 0.2578125 0.6875
vt 0.2578125 0.6640625
vn 1 0 0
vn -1 0 0
vn 0 1 0
vn 0 -1 0
vn 0 0 1
vn 0 0 -1
usemtl m_95a71441-cf5d-dbf6-fb33-8c7d325a935c
f 356/1057/265 354/1058/265 353/1059/265 355/1060/265
f 359/1061/266 357/1062/266 358/1063/266 360/1064/266
f 353/1065/267 354/1066/267 358/1067/267 357/1068/267
f 356/1069/268 355/1070/268 359/1071/268 360/1072/268
f 355/1073/269 353/1074/269 357/1075/269 359/1076/269
f 360/1077/270 358/1078/270 354/1079/270 356/1080/270